# xmcd
#
# Track frame offsets:
#	150
#	14693
#	28024
#	42822
#	56707
#	68314
#	82557
#	97090
#	112447
#	124538
#	139107
#	153212
#	168145
#	182566
#	197331
#	209680
#	224348
#	238618
#	254299
#	268859
#	282854
#	296981
#	309616
#	324533
#	336471
#
# Disc length: 4677 seconds
# Revision: 0
# Processed by: cddbd v1.5.2PL0 Copyright (c) Steve Scherf et al.
# Submitted via: dBpowerAMP V12.0
#
DISCID=76124319
DTITLE=Various Artist - Let Me Tell You About The Blues - Atlanta
DYEAR=1929
DGENRE=Blues
TTITLE0=Macon Ed and Tampa Joe - Worrying Blues
TTITLE1=Hambone Willie Newbern - Shelby County Workhouse Blues
TTITLE2=Lonnie Coleman - Old Rock Island Blues
TTITLE3=Peg Leg Howell and Jim Hill - Ball And Chain Blues
TTITLE4=Harris and Harris - This Is Not The Stove To Brown Your Bread
TTITLE5=Eli Framer - Framer's Blues
TTITLE6=Barbecue Bob - She Shook Her Gin
TTITLE7=Pillie Bolling - Brown Skin Woman
TTITLE8=Barefoot Bill - Snigglin' Blues
TTITLE9=Blind Willie Johnson - You're Gonna Need Somebody On Your Bond
TTITLE10=Jaybird Coleman - Coffee Grinder Blues
TTITLE11=Lil McClintock - Furniture Man
TTITLE12=Willie Walker - South Carolina Rag
TTITLE13=Georgia Cotton Pickers - I'm On My Way Down Home
TTITLE14=Lillie Mae - Buggy Jail House Blues
TTITLE15=Birmingham Jug Band - Giving It Away
TTITLE16=King David's Jug Band - What's That Tastes Like Gravy
TTITLE17=Bo Carter - What Kind Of Scent Is This
TTITLE18=Mississippi Sheiks - Bed Spring Poker
TTITLE19=Mary Willis and Blind Willie McTell - Talkin' To You Wimmen About The Blues
TTITLE20=Fred McMullen - DeKalb Chain Gang
TTITLE21=Georgia Browns - Decatur Street 81
TTITLE22=Buddy Moss - Hard Times Blues
TTITLE23=Chasey Collins - Atlanta Town
TTITLE24=Blind Willie McTell - Dying Crapshooter's Blues
EXTD=
EXTT0=
EXTT1=
EXTT2=
EXTT3=
EXTT4=
EXTT5=
EXTT6=
EXTT7=
EXTT8=
EXTT9=
EXTT10=
EXTT11=
EXTT12=
EXTT13=
EXTT14=
EXTT15=
EXTT16=
EXTT17=
EXTT18=
EXTT19=
EXTT20=
EXTT21=
EXTT22=
EXTT23=
EXTT24=
PLAYORDER=
